<svg width="27" height="32" viewBox="0 0 27 32" fill="none" xmlns="http://www.w3.org/2000/svg">
<g id="Apple_logo_black (1) 1" clip-path="url(#clip0_403_2546)">
<path id="Vector" d="M25.2192 10.9088C25.0336 11.0528 21.7568 12.8992 21.7568 17.0048C21.7568 21.7536 25.9264 23.4336 26.0512 23.4752C26.032 23.5776 25.3888 25.776 23.8528 28.016C22.4832 29.9872 21.0528 31.9552 18.8768 31.9552C16.7008 31.9552 16.1408 30.6912 13.6288 30.6912C11.1808 30.6912 10.3104 31.9968 8.32 31.9968C6.3296 31.9968 4.9408 30.1728 3.344 27.9328C1.4944 25.3024 0 21.216 0 17.3376C0 11.1168 4.0448 7.8176 8.0256 7.8176C10.1408 7.8176 11.904 9.2064 13.232 9.2064C14.496 9.2064 16.4672 7.7344 18.8736 7.7344C19.7856 7.7344 23.0624 7.8176 25.2192 10.9088ZM17.7312 5.1008C18.7264 3.92 19.4304 2.2816 19.4304 0.6432C19.4304 0.416 19.4112 0.1856 19.3696 0C17.7504 0.0608 15.824 1.0784 14.6624 2.4256C13.7504 3.4624 12.8992 5.1008 12.8992 6.7616C12.8992 7.0112 12.9408 7.2608 12.96 7.3408C13.0624 7.36 13.2288 7.3824 13.3952 7.3824C14.848 7.3824 16.6752 6.4096 17.7312 5.1008Z" fill="black"/>
</g>
<defs>
<clipPath id="clip0_403_2546">
<rect width="26.048" height="32" fill="white"/>
</clipPath>
</defs>
</svg>
