<svg width="22" height="22" viewBox="0 0 22 22" fill="none" xmlns="http://www.w3.org/2000/svg">
<path id="Icon" d="M19.3676 21.6905C19.7489 22.09 20.3819 22.1047 20.7814 21.7234C21.1809 21.342 21.1956 20.709 20.8143 20.3095L19.3676 21.6905ZM15.7219 9.23529C15.7219 13.2756 12.6068 16.4706 8.86096 16.4706V18.4706C13.7981 18.4706 17.7219 14.2915 17.7219 9.23529H15.7219ZM8.86096 16.4706C5.11509 16.4706 2 13.2756 2 9.23529H0C0 14.2915 3.92386 18.4706 8.86096 18.4706V16.4706ZM2 9.23529C2 5.195 5.11509 2 8.86096 2V0C3.92386 0 0 4.17913 0 9.23529H2ZM8.86096 2C12.6068 2 15.7219 5.195 15.7219 9.23529H17.7219C17.7219 4.17913 13.7981 0 8.86096 0V2ZM13.7526 15.8081L19.3676 21.6905L20.8143 20.3095L15.1993 14.4272L13.7526 15.8081Z" fill="#5F6D7E"/>
</svg>
