<svg width="25" height="25" viewBox="0 0 25 25" fill="none" xmlns="http://www.w3.org/2000/svg">
<g id="Icon">
<g id="Group">
<g id="Group_2">
<path id="Vector" d="M20.1313 11.7664H16.6213C16.5312 11.7664 16.5312 11.7664 16.4412 11.7664H16.2613C16.1713 11.7664 16.1713 11.8564 16.1713 11.8564C16.0813 11.8564 16.0812 11.9464 15.9912 11.9464L15.9012 12.0364C15.9012 12.1264 15.8113 12.1264 15.8113 12.2164L14.3713 16.2664L10.5912 6.09638C10.4112 5.64638 9.87125 5.37638 9.42125 5.55638C9.15125 5.64638 8.97125 5.82638 8.88125 6.09638L6.81125 11.7664H3.93125C3.39125 11.7664 3.03125 12.1264 3.03125 12.6664C3.03125 13.2064 3.39125 13.5664 3.93125 13.5664H7.44125H7.62125H7.80125C7.89125 13.5664 7.89125 13.4764 7.98125 13.4764C8.07125 13.4764 8.07125 13.3864 8.16125 13.3864L8.25125 13.2964C8.25125 13.2064 8.34125 13.2064 8.34125 13.1164L9.78125 9.06638L13.5612 19.3264C13.6512 19.6864 14.0113 19.9564 14.3713 19.9564C14.7312 19.9564 15.0912 19.6864 15.1812 19.3264L17.2512 13.6564H20.1313C20.6712 13.6564 21.0312 13.2964 21.0312 12.7564C21.0312 12.2164 20.6712 11.7664 20.1313 11.7664Z" fill="white"/>
</g>
</g>
</g>
</svg>
