<svg width="25" height="25" viewBox="0 0 25 25" fill="none" xmlns="http://www.w3.org/2000/svg">
<g id="Icon">
<g id="Sense icon">
<path id="Vector" d="M23.9245 12.4688C24.0975 12.7301 24.0607 12.9362 23.8105 13.1018C23.5774 13.2563 23.3823 13.1533 23.045 12.973C21.8183 12.3167 17.1398 9.8167 12.0539 13.1901C9.91091 14.6118 7.84394 14.8019 6.02845 14.3886C3.24388 13.7544 1.0751 11.6862 0.15509 10.5184C0.0508212 10.3859 -0.00560574 10.0584 0.0581817 9.82651C0.0839424 9.73083 0.128101 9.63761 0.191889 9.5591C0.282663 9.4487 0.404106 9.37264 0.559896 9.35179C0.745125 9.32725 0.953659 9.38982 1.17324 9.59712L1.27505 9.69281C2.46861 10.8214 5.78312 13.9555 10.4887 10.8336C13.8007 8.63541 17.0723 8.91141 19.5539 9.79585C22.0318 10.6791 23.7589 12.2235 23.9221 12.4688L23.9245 12.4688ZM11.5755 12.4651C14.6631 10.4165 17.6022 10.3589 19.8225 10.8299C19.6434 10.7563 19.4582 10.684 19.2668 10.6165C16.9926 9.80566 13.9982 9.55051 10.9732 11.5574C7.94331 13.5679 5.43719 13.2796 3.6033 12.4308C4.37611 12.9129 5.25932 13.3226 6.21981 13.5421C7.82554 13.9077 9.66189 13.736 11.5755 12.4651Z" fill="white"/>
<path id="Vector 58" d="M11.5293 10.6409C8.34362 13.9664 4.52848 12.0239 3.41406 11.6524C3.41406 13.8793 7.87173 13.8793 8.98614 13.8793C10.1006 13.8793 15.0293 9.92596 21.2447 11.64C19.0159 9.41887 15.5293 9.13925 11.5293 10.6409Z" fill="white"/>
</g>
</g>
</svg>
