<svg width="24" height="23" viewBox="0 0 24 23" fill="none" xmlns="http://www.w3.org/2000/svg">
<g id="user">
<g id="Vector">
<path d="M14.8284 9.94561C15.5786 9.19547 16 8.17805 16 7.11719C16 6.05632 15.5786 5.03891 14.8284 4.28876C14.0783 3.53861 13.0609 3.11719 12 3.11719C10.9391 3.11719 9.92172 3.53861 9.17157 4.28876C8.42143 5.03891 8 6.05632 8 7.11719C8 8.17805 8.42143 9.19547 9.17157 9.94561C9.92172 10.6958 10.9391 11.1172 12 11.1172C13.0609 11.1172 14.0783 10.6958 14.8284 9.94561Z" stroke="white" stroke-width="2" stroke-linecap="round" stroke-linejoin="round"/>
<path d="M7.05025 16.1674C8.36301 14.8547 10.1435 14.1172 12 14.1172C13.8565 14.1172 15.637 14.8547 16.9497 16.1674C18.2625 17.4802 19 19.2607 19 21.1172H5C5 19.2607 5.7375 17.4802 7.05025 16.1674Z" stroke="white" stroke-width="2" stroke-linecap="round" stroke-linejoin="round"/>
</g>
</g>
</svg>
