<svg width="25" height="24" viewBox="0 0 25 24" fill="none" xmlns="http://www.w3.org/2000/svg">
<g id="light-bulb">
<path id="Vector" d="M9.70206 17.9688H14.3751M12.0391 3.96875V4.96875M18.4031 6.60475L17.6961 7.31175M21.0391 12.9688H20.0391M4.03906 12.9688H3.03906M6.38206 7.31175L5.67506 6.60475M8.50306 16.5048C7.80393 15.8054 7.32786 14.9145 7.13504 13.9446C6.94222 12.9748 7.04131 11.9695 7.41979 11.056C7.79827 10.1424 8.43913 9.36159 9.26135 8.81224C10.0836 8.26289 11.0502 7.96968 12.0391 7.96968C13.0279 7.96968 13.9946 8.26289 14.8168 8.81224C15.639 9.36159 16.2799 10.1424 16.6583 11.056C17.0368 11.9695 17.1359 12.9748 16.9431 13.9446C16.7503 14.9145 16.2742 15.8054 15.5751 16.5048L15.0271 17.0518C14.7138 17.3651 14.4653 17.7371 14.2957 18.1465C14.1262 18.5559 14.039 18.9946 14.0391 19.4377V19.9688C14.0391 20.4992 13.8283 21.0079 13.4533 21.383C13.0782 21.758 12.5695 21.9688 12.0391 21.9688C11.5086 21.9688 10.9999 21.758 10.6248 21.383C10.2498 21.0079 10.0391 20.4992 10.0391 19.9688V19.4377C10.0391 18.5427 9.68306 17.6838 9.05106 17.0518L8.50306 16.5048Z" stroke="white" stroke-width="2" stroke-linecap="round" stroke-linejoin="round"/>
</g>
</svg>
