<svg width="25" height="25" viewBox="0 0 25 25" fill="none" xmlns="http://www.w3.org/2000/svg">
<g id="Frame 1000004824">
<path id="Icon" d="M9.5767 3.078L14.4858 3.078C16.7769 3.078 17.9225 3.078 18.7976 3.52389C19.5673 3.91609 20.1932 4.54192 20.5854 5.31168C21.0312 6.18677 21.0312 7.33233 21.0312 9.62346V14.5325C21.0313 16.8237 21.0312 17.9692 20.5854 18.8443C20.1932 19.6141 19.5673 20.2399 18.7976 20.6321C17.9225 21.078 16.7769 21.078 14.4858 21.078H9.57671M9.5767 3.078C7.28558 3.078 6.14002 3.078 5.26492 3.52389C4.49517 3.9161 3.86934 4.54192 3.47713 5.31168C3.03125 6.18677 3.03125 7.33233 3.03125 9.62346L3.03125 14.5325C3.03125 16.8237 3.03125 17.9692 3.47713 18.8443C3.86934 19.6141 4.49517 20.2399 5.26493 20.6321C6.14002 21.078 7.28558 21.078 9.57671 21.078M9.5767 3.078L9.57671 21.078M9.5767 12.078H21.0312" stroke="white" stroke-width="2" stroke-linecap="round"/>
</g>
</svg>
