<svg width="24" height="23" viewBox="0 0 24 23" fill="none" xmlns="http://www.w3.org/2000/svg">
<g id="bell">
<path id="Vector" d="M15 17.2891H20L18.595 15.8841C18.4063 15.6953 18.2567 15.4713 18.1546 15.2247C18.0525 14.9782 18 14.7139 18 14.4471V11.2891C18.0002 10.048 17.6156 8.8374 16.8992 7.82395C16.1829 6.8105 15.17 6.04403 14 5.63006V5.28906C14 4.75863 13.7893 4.24992 13.4142 3.87485C13.0391 3.49978 12.5304 3.28906 12 3.28906C11.4696 3.28906 10.9609 3.49978 10.5858 3.87485C10.2107 4.24992 10 4.75863 10 5.28906V5.63006C7.67 6.45406 6 8.67706 6 11.2891V14.4481C6 14.9861 5.786 15.5031 5.405 15.8841L4 17.2891H9M15 17.2891H9M15 17.2891V18.2891C15 19.0847 14.6839 19.8478 14.1213 20.4104C13.5587 20.973 12.7956 21.2891 12 21.2891C11.2044 21.2891 10.4413 20.973 9.87868 20.4104C9.31607 19.8478 9 19.0847 9 18.2891V17.2891" stroke="white" stroke-width="2" stroke-linecap="round" stroke-linejoin="round"/>
</g>
</svg>
