<svg width="25" height="23" viewBox="0 0 25 23" fill="none" xmlns="http://www.w3.org/2000/svg">
<g id="People">
<path id="Vector" d="M17.0391 21.6719V19.6719C17.0391 18.611 16.6176 17.5936 15.8675 16.8434C15.1173 16.0933 14.0999 15.6719 13.0391 15.6719H5.03906C3.9782 15.6719 2.96078 16.0933 2.21064 16.8434C1.46049 17.5936 1.03906 18.611 1.03906 19.6719V21.6719" stroke="white" stroke-width="2" stroke-linecap="round" stroke-linejoin="round"/>
<path id="Vector_2" d="M9.03906 11.6719C11.2482 11.6719 13.0391 9.88101 13.0391 7.67188C13.0391 5.46274 11.2482 3.67188 9.03906 3.67188C6.82992 3.67188 5.03906 5.46274 5.03906 7.67188C5.03906 9.88101 6.82992 11.6719 9.03906 11.6719Z" stroke="white" stroke-width="2" stroke-linecap="round" stroke-linejoin="round"/>
<path id="Vector_3" d="M23.0391 21.6719V19.6719C23.0384 18.7856 22.7434 17.9247 22.2004 17.2242C21.6574 16.5237 20.8972 16.0234 20.0391 15.8019" stroke="white" stroke-width="2" stroke-linecap="round" stroke-linejoin="round"/>
<path id="Vector_4" d="M16.0391 3.80188C16.8995 4.02218 17.6621 4.52258 18.2067 5.22419C18.7513 5.9258 19.0469 6.78871 19.0469 7.67688C19.0469 8.56505 18.7513 9.42796 18.2067 10.1296C17.6621 10.8312 16.8995 11.3316 16.0391 11.5519" stroke="white" stroke-width="2" stroke-linecap="round" stroke-linejoin="round"/>
</g>
</svg>
