<svg width="25" height="23" viewBox="0 0 25 23" fill="none" xmlns="http://www.w3.org/2000/svg">
<g id="chart-pie">
<path id="Vector" d="M6.4316 5.32672C7.75752 4.27081 9.35464 3.61074 11.0392 3.42249V13.3675H20.9842C20.7959 15.052 20.1358 16.6491 19.0799 17.975C18.024 19.301 16.6152 20.3018 15.0155 20.8623C13.4159 21.4229 11.6905 21.5204 10.0379 21.1436C8.38533 20.7668 6.87272 19.931 5.67418 18.7325C4.47563 17.5339 3.63986 16.0213 3.26306 14.3687C2.88626 12.7161 2.98375 10.9907 3.5443 9.39111C4.10484 7.79148 5.10567 6.38264 6.4316 5.32672Z" stroke="white" stroke-width="2" stroke-linecap="round" stroke-linejoin="round"/>
<path id="Vector_2" d="M15.0391 9.36739H20.5271C20.0781 8.10201 19.3525 6.95274 18.4031 6.00333C17.4537 5.05393 16.3044 4.32832 15.0391 3.87939V9.36739Z" stroke="white" stroke-width="2" stroke-linecap="round" stroke-linejoin="round"/>
</g>
</svg>
