<svg width="25" height="25" viewBox="0 0 25 25" fill="none" xmlns="http://www.w3.org/2000/svg">
<g id="Icon">
<g id="Icon_2">
<path d="M3.03125 14.1956C3.03125 13.2014 3.83714 12.3956 4.83125 12.3956C5.82536 12.3956 6.63125 13.2014 6.63125 14.1956V17.7956C6.63125 18.7897 5.82536 19.5956 4.83125 19.5956C3.83714 19.5956 3.03125 18.7897 3.03125 17.7956V14.1956Z" stroke="white" stroke-width="2"/>
<path d="M10.2312 6.99556C10.2312 6.00144 11.0371 5.19556 12.0312 5.19556C13.0254 5.19556 13.8312 6.00144 13.8312 6.99556V17.7956C13.8312 18.7897 13.0254 19.5956 12.0312 19.5956C11.0371 19.5956 10.2312 18.7897 10.2312 17.7956V6.99556Z" stroke="white" stroke-width="2"/>
<path d="M17.4312 10.5956C17.4312 9.60144 18.2371 8.79556 19.2312 8.79556C20.2254 8.79556 21.0312 9.60144 21.0312 10.5956V17.7956C21.0312 18.7897 20.2254 19.5956 19.2312 19.5956C18.2371 19.5956 17.4312 18.7897 17.4312 17.7956V10.5956Z" stroke="white" stroke-width="2"/>
</g>
</g>
</svg>
